<?xml version="1.0" encoding="UTF-8"?>
<!DOCTYPE svg PUBLIC "-//W3C//DTD SVG 1.1//EN" "http://www.w3.org/Graphics/SVG/1.1/DTD/svg11.dtd">
<!-- Creator: CorelDRAW 2019 (64-Bit) -->
<svg xmlns="http://www.w3.org/2000/svg" xml:space="preserve" width="2000px" height="2000px" version="1.1" style="shape-rendering:geometricPrecision; text-rendering:geometricPrecision; image-rendering:optimizeQuality; fill-rule:evenodd; clip-rule:evenodd"
viewBox="0 0 2000 2000"
 xmlns:xlink="http://www.w3.org/1999/xlink">
 <defs>
  <style type="text/css">
   <![CDATA[
    .str0 {stroke:#FEFEFE;stroke-width:12.5;stroke-linecap:round;stroke-linejoin:round;stroke-miterlimit:22.9256}
    .fil8 {fill:none}
    .fil0 {fill:#701111}
    .fil1 {fill:#FEFEFE;fill-rule:nonzero}
    .fil3 {fill:url(#id0);fill-rule:nonzero;fill-opacity:0.231373}
    .fil2 {fill:url(#id1);fill-rule:nonzero;fill-opacity:0.231373}
    .fil4 {fill:url(#id2);fill-rule:nonzero;fill-opacity:0.231373}
    .fil5 {fill:url(#id3);fill-rule:nonzero;fill-opacity:0.231373}
    .fil6 {fill:url(#id4);fill-rule:nonzero;fill-opacity:0.231373}
    .fil7 {fill:url(#id5);fill-rule:nonzero;fill-opacity:0.231373}
   ]]>
  </style>
  <linearGradient id="id0" gradientUnits="userSpaceOnUse" x1="337.39" y1="988.86" x2="664.39" y2="779.7">
   <stop offset="0" style="stop-opacity:1; stop-color:#BF0000"/>
   <stop offset="1" style="stop-opacity:1; stop-color:white"/>
  </linearGradient>
  <linearGradient id="id1" gradientUnits="userSpaceOnUse" xlink:href="#id0" x1="587.69" y1="1161.38" x2="238.93" y2="1005.54">
  </linearGradient>
  <linearGradient id="id2" gradientUnits="userSpaceOnUse" xlink:href="#id0" x1="633.19" y1="873.08" x2="661.48" y2="1235.35">
  </linearGradient>
  <linearGradient id="id3" gradientUnits="userSpaceOnUse" x1="411.89" y1="867.72" x2="282.44" y2="1007.85">
   <stop offset="0" style="stop-opacity:1; stop-color:#FFA8A8"/>
   <stop offset="0.341176" style="stop-opacity:1; stop-color:#D65F5F"/>
   <stop offset="1" style="stop-opacity:1; stop-color:#AD1616"/>
  </linearGradient>
  <linearGradient id="id4" gradientUnits="userSpaceOnUse" xlink:href="#id3" x1="742.56" y1="881.9" x2="548.88" y2="958.84">
  </linearGradient>
  <linearGradient id="id5" gradientUnits="userSpaceOnUse" xlink:href="#id3" x1="601.18" y1="1072.47" x2="411.67" y2="1160.19">
  </linearGradient>
 </defs>
 <g id="Layer_x0020_1">
  <metadata id="CorelCorpID_0Corel-Layer"/>
  <polygon class="fil0" points="0,0 2000,0 2000,2000 0,2000 "/>
  <path class="fil1" d="M840.32 915.59c0,-2.07 -1.04,-3.1 -3.02,-3.1l-33.77 0c-1.99,0 -3.02,1.03 -3.02,3.1l0 203.87c0,1.99 1.03,3.02 3.02,3.02l33.77 0c1.98,0 3.02,-1.03 3.02,-3.02l0 -126.17c1.43,-11.36 6.35,-20.81 14.93,-28.36 8.5,-7.79 18.51,-11.68 30.04,-11.68 2.14,0 4.21,0.16 6.27,0.48 1.83,0.31 3.02,-0.48 3.5,-2.31l6.75 -32.65c0.24,-1.99 -0.55,-3.18 -2.62,-3.42 -4.45,-0.79 -9.14,-1.19 -13.9,-1.19 -16.21,0 -31.15,4.37 -44.97,13.03l0 -11.6z"/>
  <path id="1" class="fil1" d="M1069.62 1036.36l-0.24 2.54 -0.24 3.49 0 1.2 0 0.71 -0.24 0.64c-0.08,1.11 -0.32,2.54 -0.63,4.21 -0.96,3.73 -2.23,7.23 -3.74,10.49 -2.22,4.52 -5,8.42 -8.42,11.83 -8.66,9.22 -19.39,13.99 -32.1,14.46l-1.19 0 -1.11 0 -3.02 -0.23 -2.15 0 -1.11 -0.24 -1.43 -0.24c-3.26,-0.64 -6.52,-1.51 -9.77,-2.78 -6.36,-2.62 -11.92,-6.6 -16.77,-11.84 -4.69,-5.32 -7.94,-11.28 -9.77,-17.96 -0.95,-3.25 -1.59,-6.59 -1.83,-10.01 0,-1.11 0,-2.94 0,-5.56l0 -3.26 0 -3.49c0,-4.05 0,-8.58 0,-13.51l0 -6.51 0.16 -6.28c0,-10.25 0,-18.12 0,-23.52 0.16,-19.54 0.24,-35.75 0.24,-48.62l0.24 -16.53c0,-2.22 -0.96,-3.26 -3.02,-3.26l-33.29 0c-1.99,0 -3.02,1.04 -3.02,3.26l0 16.53c0,12.87 0.08,29.08 0.24,48.62 0,3.1 0,6.83 0,11.12l0.23 6.12 0 6.28c0,10.72 0,19.47 0,26.3l0 3.26 0 3.49c0.16,2.94 0.32,5.72 0.48,8.34 0.48,6.2 1.51,12.32 3.26,18.2 3.73,11.92 9.93,22.64 18.59,32.1 8.74,9.45 18.91,16.44 30.51,20.97 5.72,2.15 11.68,3.82 17.72,4.85l2.06 0.24 2.31 0.24 2.38 0.23 2.54 0.24 3.5 0 1.19 0 0.4 0 1.19 0 2.07 -0.24c11.36,-0.63 22.16,-3.49 32.41,-8.58 3.74,-1.9 7.47,-4.21 11.37,-6.99l0 11.12c0,2.07 1.03,3.02 3.01,3.02l33.77 0c1.99,0 3.02,-0.95 3.02,-3.02l0 -203.87c0,-1.99 -1.03,-3.02 -3.02,-3.02l-33.77 0c-1.98,0 -3.01,1.03 -3.01,3.02l0 122.44z"/>
  <path id="2" class="fil1" d="M1282.39 1083.15c-17.72,0 -32.89,-6.19 -45.61,-18.59 -12.55,-12.47 -19.06,-27.49 -19.54,-45.21l0 -3.02c0.48,-17.71 6.99,-32.73 19.54,-45.12 12.72,-12.48 27.89,-18.68 45.61,-18.68 18.04,0 33.45,6.36 46.32,19.15 12.71,12.87 19.07,28.29 19.07,46.32 0,17.96 -6.36,33.29 -19.07,46.09 -12.87,12.71 -28.28,19.06 -46.32,19.06zm4.45 -169.71c-26.06,-1.11 -49.26,6.52 -69.6,22.81l0 -144.77c0,-1.98 -1.03,-3.02 -3.02,-3.02l-33.77 0c-2.06,0 -3.02,1.04 -3.02,3.02l0 327.27c0,1.98 0.96,3.02 3.02,3.02l33.77 0c1.99,0 3.02,-1.04 3.02,-3.02l0 -19.31c19.07,15.34 40.76,23.04 65.15,23.04 30.11,0 55.46,-11.04 76.12,-33.05 9.77,-10.25 17.16,-22.01 22.08,-35.36 5.17,-13.82 7.23,-28.2 6.28,-43.06 -1.67,-26.38 -12.16,-49.02 -31.38,-67.77 -19.23,-18.75 -42.11,-28.68 -68.65,-29.8z"/>
  <path id="3" class="fil1" d="M1454.4 913.44c-1.98,0 -3.02,1.04 -3.02,3.02l0 203c0,1.99 1.04,3.02 3.02,3.02l33.06 0c2.06,0 3.09,-1.03 3.09,-3.02l0 -203c0,-1.98 -1.03,-3.02 -3.09,-3.02l-33.06 0zm16.53 -38.37c6.28,0 11.52,-2.23 15.89,-6.52 4.29,-4.53 6.52,-9.85 6.52,-16.05 0,-6.27 -2.23,-11.52 -6.52,-15.89 -4.37,-4.29 -9.61,-6.51 -15.89,-6.51 -6.2,0 -11.44,2.22 -15.81,6.51 -4.45,4.37 -6.75,9.62 -6.75,15.89 0,6.2 2.3,11.52 6.75,16.05 4.37,4.29 9.61,6.52 15.81,6.52z"/>
  <path id="4" class="fil1" d="M1611.32 1081.96c-5.88,-2.94 -8.82,-9.29 -8.82,-19.07l0 -110.99 31.86 0c1.99,0 3.02,-1.03 3.02,-3.1l0 -33.05c0,-1.99 -1.03,-3.02 -3.02,-3.02l-31.86 0 0 -43.94c0,-2.06 -1.03,-3.02 -3.1,-3.02l-33.29 0c-1.98,0 -3.02,0.96 -3.02,3.02l0.24 43.94 -31.86 0c-1.98,0 -3.02,1.03 -3.02,3.02l0 33.05c0,2.07 1.04,3.1 3.02,3.1l31.86 0 0 110.99c0,12.08 2.7,22.97 7.95,32.58 5.4,9.61 12.87,16.76 22.32,21.45 7.47,3.74 15.34,5.56 23.52,5.56 12.08,0 23.68,-3.81 34.72,-11.44 1.83,-1.03 2.07,-2.46 0.64,-4.13l-19.79 -26.54c-1.03,-1.59 -2.38,-1.9 -3.89,-0.95 -6.67,4.21 -12.55,5.01 -17.48,2.54z"/>
  <path id="5" class="fil1" d="M1708.57 913.44c-1.98,0 -3.02,1.04 -3.02,3.02l0 203c0,1.99 1.04,3.02 3.02,3.02l33.05 0c2.07,0 3.1,-1.03 3.1,-3.02l0 -203c0,-1.98 -1.03,-3.02 -3.1,-3.02l-33.05 0zm16.53 -38.37c6.28,0 11.52,-2.23 15.89,-6.52 4.29,-4.53 6.51,-9.85 6.51,-16.05 0,-6.27 -2.22,-11.52 -6.51,-15.89 -4.37,-4.29 -9.61,-6.51 -15.89,-6.51 -6.2,0 -11.44,2.22 -15.81,6.51 -4.45,4.37 -6.76,9.62 -6.76,15.89 0,6.2 2.31,11.52 6.76,16.05 4.37,4.29 9.61,6.52 15.81,6.52z"/>
  <g id="_2395178012400">
   <path class="fil0" d="M494.3 762.45c133.98,0 242.6,107.75 242.6,240.66 0,132.91 -108.62,240.66 -242.6,240.66 -133.98,0 -242.6,-107.75 -242.6,-240.66 0,-132.91 108.62,-240.66 242.6,-240.66zm-4.71 206.76c71.44,0 129.35,57.03 129.35,127.37 0,70.34 -57.91,127.36 -129.35,127.36 -71.43,0 -129.35,-57.02 -129.35,-127.36 0,-70.34 57.92,-127.37 129.35,-127.37z"/>
   <g>
    <g>
     <path class="fil2" d="M349.13 1191.95c-68.63,-54.96 -94.74,-136.15 -92.13,-221.01 15.45,54.2 56.08,99.52 106.8,128.57 14.83,8.49 30.2,15.18 45.84,20.29 53.31,17.43 112.29,18.8 163.06,0.21 -17.58,19.99 -35.76,32.29 -57.6,46.09 -53.86,30.85 -109.49,37.39 -165.97,25.85z"/>
     <path class="fil3" d="M407.47 776.92c82.29,-31.49 174.36,-15.78 241.04,37.87 -0.09,-0.02 -0.19,-0.03 -0.29,-0.05 -56.47,-11.55 -117.26,-3.44 -171.12,27.42 -14.83,8.49 -28.35,18.36 -40.64,29.24 -41.87,37.09 -69.84,88.94 -79,141.85 -2.8,-7.33 -5.21,-14.74 -7.25,-22.2 -3.57,-16.48 -5.52,-33.56 -5.52,-51.1 0,-61.7 24.47,-120.28 62.78,-163.03z"/>
     <path class="fil4" d="M734.3 1038.42c-22.75,144.01 -155.99,190.56 -155.95,190.51 108.47,-88.75 76.37,-271.53 -17.89,-348.1 84.67,8.65 141.1,96.85 173.84,157.59z"/>
    </g>
    <g>
     <path class="fil5" d="M396.45 790.14c-86.99,106.55 -54.51,279.06 36.92,336.56 -7.8,-1.26 -15.48,-2.9 -23.01,-4.88 -16.17,-5.16 -32.05,-12.03 -47.36,-20.8 -56.11,-33.65 -101.87,-97.59 -103.97,-130.08 13.66,-86.45 57.25,-150.33 137.42,-180.8z"/>
     <path class="fil6" d="M727.84 1031.22c-67.08,-137.86 -181.82,-196.38 -309.57,-141.74 56.47,-66.87 158.22,-91.85 227.03,-74.74 68.63,54.96 96.03,132.36 82.54,216.48z"/>
     <path class="fil7" d="M633.79 994.75c26.04,83.64 14.2,161.6 -41.45,224.1 -87.75,31.49 -170.97,24.92 -239.89,-26.9 132.86,27.16 258.09,-62.86 281.34,-197.2z"/>
    </g>
    <path class="fil8 str0" d="M491.09 968.46c71.63,0 129.7,57.5 129.7,128.43 0,70.93 -58.07,128.43 -129.7,128.43 -71.63,0 -129.7,-57.5 -129.7,-128.43 0,-70.93 58.07,-128.43 129.7,-128.43zm4.43 -201.97c131.8,0 238.64,105.8 238.64,236.31 0,130.51 -106.84,236.31 -238.64,236.31 -131.8,0 -238.64,-105.8 -238.64,-236.31 0,-130.51 106.84,-236.31 238.64,-236.31z"/>
   </g>
  </g>
  <path class="fil1" d="M511.72 861.54c0,-3.28 -1.63,-4.92 -4.78,-4.92l-53.55 0c-3.15,0 -4.79,1.64 -4.79,4.92l0 323.28c0,3.15 1.64,4.79 4.79,4.79l53.55 0c3.15,0 4.78,-1.64 4.78,-4.79l0 -200.07c2.27,-18.02 10.08,-33.01 23.69,-44.98 13.48,-12.34 29.35,-18.52 47.62,-18.52 3.41,0 6.68,0.26 9.96,0.76 2.89,0.5 4.78,-0.76 5.54,-3.65l10.71 -51.78c0.38,-3.16 -0.88,-5.04 -4.16,-5.42 -7.05,-1.26 -14.49,-1.89 -22.05,-1.89 -25.7,0 -49.38,6.93 -71.31,20.66l0 -18.39z"/>
 </g>
</svg>
